# xmcd
#
# Track frame offsets:
#	150
#	16922
#	29421
#	44858
#	58739
#	71335
#	96987
#	107565
#	125018
#	140661
#
# Disc length: 2055 seconds
#
# Revision: 1
# Processed by: cddbd v1.5.2PL0 Copyright (c) Steve Scherf et al.
# Submitted via: audiograbber 1.83.01
#
DISCID=9308050a
DTITLE=The Clean - Mister Pop
DYEAR=2009
DGENRE=Rock
TTITLE0=Loog
TTITLE1=Are You Really On Drugs?
TTITLE2=In the Dreamlife You Need a Rubber Soul
TTITLE3=Asleep in the Tunnel
TTITLE4=Back in the Day
TTITLE5=Moon Jumper
TTITLE6=Factory Man
TTITLE7=Simple Fix
TTITLE8=Tensile
TTITLE9=All Those Notes
EXTD=
EXTT0=
EXTT1=
EXTT2=
EXTT3=
EXTT4=
EXTT5=
EXTT6=
EXTT7=
EXTT8=
EXTT9=
PLAYORDER=
